<svg width="161" height="18" viewBox="0 0 161 18" fill="none" xmlns="http://www.w3.org/2000/svg">
<path d="M8.19 9.828C8.19 10.024 8.16667 10.248 8.12 10.5H2.436C2.464 11.1907 2.65067 11.6993 2.996 12.026C3.34133 12.3527 3.77067 12.516 4.284 12.516C4.74133 12.516 5.11933 12.404 5.418 12.18C5.726 11.956 5.922 11.6527 6.006 11.27H8.092C7.98933 11.8113 7.77 12.2967 7.434 12.726C7.098 13.1553 6.664 13.4913 6.132 13.734C5.60933 13.9767 5.026 14.098 4.382 14.098C3.626 14.098 2.954 13.9393 2.366 13.622C1.778 13.2953 1.32067 12.8333 0.994 12.236C0.667333 11.6387 0.504 10.934 0.504 10.122C0.504 9.31 0.667333 8.60533 0.994 8.008C1.32067 7.40133 1.778 6.93933 2.366 6.622C2.954 6.30467 3.626 6.146 4.382 6.146C5.14733 6.146 5.81467 6.30467 6.384 6.622C6.96267 6.93933 7.406 7.378 7.714 7.938C8.03133 8.48867 8.19 9.11867 8.19 9.828ZM6.202 9.632C6.23 8.99733 6.062 8.51667 5.698 8.19C5.34333 7.86333 4.90467 7.7 4.382 7.7C3.85 7.7 3.402 7.86333 3.038 8.19C2.674 8.51667 2.47333 8.99733 2.436 9.632H6.202ZM19.7113 6.132C20.654 6.132 21.396 6.426 21.9373 7.014C22.488 7.59267 22.7633 8.41867 22.7633 9.492V14H20.8033V9.716C20.8033 9.11867 20.6493 8.66133 20.3413 8.344C20.0426 8.01733 19.6273 7.854 19.0953 7.854C18.5446 7.854 18.106 8.02667 17.7793 8.372C17.4526 8.71733 17.2893 9.22133 17.2893 9.884V14H15.3293V9.716C15.3293 9.11867 15.1753 8.66133 14.8673 8.344C14.5686 8.01733 14.1533 7.854 13.6213 7.854C13.0706 7.854 12.632 8.02667 12.3053 8.372C11.9786 8.71733 11.8153 9.22133 11.8153 9.884V14H9.84131V6.244H11.8153V7.714C12.0206 7.21 12.3426 6.82267 12.7813 6.552C13.2293 6.272 13.7473 6.132 14.3353 6.132C14.9606 6.132 15.502 6.28133 15.9593 6.58C16.426 6.87867 16.776 7.308 17.0093 7.868C17.252 7.336 17.6113 6.916 18.0873 6.608C18.5726 6.29067 19.114 6.132 19.7113 6.132ZM27.7856 6.146C28.4389 6.146 28.9989 6.3 29.4656 6.608C29.9322 6.916 30.2636 7.33133 30.4596 7.854V6.244H32.4196V14H30.4596V12.376C30.2636 12.8987 29.9322 13.3187 29.4656 13.636C28.9989 13.944 28.4389 14.098 27.7856 14.098C27.1322 14.098 26.5442 13.9393 26.0216 13.622C25.4989 13.3047 25.0882 12.8473 24.7896 12.25C24.5002 11.6433 24.3556 10.934 24.3556 10.122C24.3556 9.31 24.5002 8.60533 24.7896 8.008C25.0882 7.40133 25.4989 6.93933 26.0216 6.622C26.5442 6.30467 27.1322 6.146 27.7856 6.146ZM28.4016 7.868C27.7856 7.868 27.2909 8.06867 26.9176 8.47C26.5442 8.87133 26.3576 9.422 26.3576 10.122C26.3576 10.822 26.5442 11.3727 26.9176 11.774C27.2909 12.166 27.7856 12.362 28.4016 12.362C28.9989 12.362 29.4889 12.1613 29.8716 11.76C30.2636 11.3493 30.4596 10.8033 30.4596 10.122C30.4596 9.43133 30.2636 8.88533 29.8716 8.484C29.4889 8.07333 28.9989 7.868 28.4016 7.868ZM34.2345 4.018C34.2345 3.70067 34.3465 3.444 34.5705 3.248C34.7945 3.04267 35.0885 2.94 35.4525 2.94C35.8165 2.94 36.1105 3.04267 36.3345 3.248C36.5585 3.444 36.6705 3.70067 36.6705 4.018C36.6705 4.326 36.5585 4.58267 36.3345 4.788C36.1105 4.984 35.8165 5.082 35.4525 5.082C35.0885 5.082 34.7945 4.984 34.5705 4.788C34.3465 4.58267 34.2345 4.326 34.2345 4.018ZM36.4325 6.244V14H34.4585V6.244H36.4325ZM40.4423 3.64V14H38.4683V3.64H40.4423ZM51.032 2.674C52.516 2.674 53.7947 2.93067 54.868 3.444C55.9507 3.948 56.7767 4.68533 57.346 5.656C57.9247 6.61733 58.214 7.77 58.214 9.114C58.214 10.038 58.0274 10.8827 57.654 11.648C57.29 12.4133 56.8 13.0153 56.184 13.454C55.568 13.8927 54.9054 14.112 54.196 14.112C53.5707 14.112 53.062 13.9673 52.67 13.678C52.2874 13.3887 52.068 12.936 52.012 12.32C51.6947 12.8987 51.298 13.342 50.822 13.65C50.3554 13.958 49.786 14.112 49.114 14.112C48.5354 14.112 48.022 13.9767 47.574 13.706C47.1354 13.426 46.79 13.0387 46.538 12.544C46.2954 12.04 46.174 11.4613 46.174 10.808C46.174 10.6027 46.1787 10.4487 46.188 10.346C46.244 9.54333 46.468 8.82467 46.86 8.19C47.2614 7.546 47.784 7.04667 48.428 6.692C49.0814 6.328 49.8 6.146 50.584 6.146C51.6014 6.146 52.4087 6.42133 53.006 6.972C53.6127 7.51333 53.916 8.25067 53.916 9.184C53.916 9.38 53.902 9.58533 53.874 9.8L53.65 11.312C53.6314 11.48 53.622 11.592 53.622 11.648C53.622 11.9187 53.678 12.11 53.79 12.222C53.9114 12.334 54.0934 12.39 54.336 12.39C54.6627 12.39 54.966 12.2687 55.246 12.026C55.5354 11.774 55.7687 11.41 55.946 10.934C56.1234 10.4487 56.212 9.86533 56.212 9.184C56.212 8.204 56.002 7.34533 55.582 6.608C55.162 5.87067 54.5414 5.30133 53.72 4.9C52.908 4.48933 51.914 4.284 50.738 4.284C49.3567 4.284 48.1667 4.56867 47.168 5.138C46.1787 5.70733 45.4274 6.48667 44.914 7.476C44.4007 8.46533 44.144 9.57133 44.144 10.794C44.144 12.4927 44.6434 13.804 45.642 14.728C46.65 15.6613 48.1154 16.128 50.038 16.128L49.674 17.738C48.0874 17.7193 46.7387 17.4347 45.628 16.884C44.5174 16.3333 43.6727 15.54 43.094 14.504C42.5154 13.4773 42.226 12.2407 42.226 10.794C42.226 9.17933 42.6134 7.76067 43.388 6.538C44.1627 5.306 45.2174 4.354 46.552 3.682C47.896 3.01 49.3894 2.674 51.032 2.674ZM51.998 9.674C51.998 9.086 51.8394 8.638 51.522 8.33C51.2047 8.01267 50.78 7.854 50.248 7.854C49.856 7.854 49.492 7.96133 49.156 8.176C48.8294 8.38133 48.568 8.68467 48.372 9.086C48.176 9.48733 48.078 9.96333 48.078 10.514C48.078 11.1113 48.2367 11.5733 48.554 11.9C48.8807 12.2267 49.2914 12.39 49.786 12.39C50.1687 12.39 50.528 12.2873 50.864 12.082C51.2 11.8673 51.4707 11.5593 51.676 11.158C51.8907 10.7473 51.998 10.2527 51.998 9.674ZM67.1119 9.828C67.1119 10.024 67.0885 10.248 67.0419 10.5H61.3579C61.3859 11.1907 61.5725 11.6993 61.9179 12.026C62.2632 12.3527 62.6925 12.516 63.2059 12.516C63.6632 12.516 64.0412 12.404 64.3399 12.18C64.6479 11.956 64.8439 11.6527 64.9279 11.27H67.0139C66.9112 11.8113 66.6919 12.2967 66.3559 12.726C66.0199 13.1553 65.5859 13.4913 65.0539 13.734C64.5312 13.9767 63.9479 14.098 63.3039 14.098C62.5479 14.098 61.8759 13.9393 61.2879 13.622C60.6999 13.2953 60.2425 12.8333 59.9159 12.236C59.5892 11.6387 59.4259 10.934 59.4259 10.122C59.4259 9.31 59.5892 8.60533 59.9159 8.008C60.2425 7.40133 60.6999 6.93933 61.2879 6.622C61.8759 6.30467 62.5479 6.146 63.3039 6.146C64.0692 6.146 64.7365 6.30467 65.3059 6.622C65.8845 6.93933 66.3279 7.378 66.6359 7.938C66.9532 8.48867 67.1119 9.11867 67.1119 9.828ZM65.1239 9.632C65.1519 8.99733 64.9839 8.51667 64.6199 8.19C64.2652 7.86333 63.8265 7.7 63.3039 7.7C62.7719 7.7 62.3239 7.86333 61.9599 8.19C61.5959 8.51667 61.3952 8.99733 61.3579 9.632H65.1239ZM73.4812 14L71.7172 11.508L70.2332 14H68.0632L70.6252 9.954L68.0072 6.244H70.2192L71.9412 8.694L73.4252 6.244H75.5952L72.9912 10.178L75.6932 14H73.4812ZM79.9945 6.146C80.6479 6.146 81.2079 6.3 81.6745 6.608C82.1412 6.916 82.4725 7.33133 82.6685 7.854V6.244H84.6285V14H82.6685V12.376C82.4725 12.8987 82.1412 13.3187 81.6745 13.636C81.2079 13.944 80.6479 14.098 79.9945 14.098C79.3412 14.098 78.7532 13.9393 78.2305 13.622C77.7079 13.3047 77.2972 12.8473 76.9985 12.25C76.7092 11.6433 76.5645 10.934 76.5645 10.122C76.5645 9.31 76.7092 8.60533 76.9985 8.008C77.2972 7.40133 77.7079 6.93933 78.2305 6.622C78.7532 6.30467 79.3412 6.146 79.9945 6.146ZM80.6105 7.868C79.9945 7.868 79.4999 8.06867 79.1265 8.47C78.7532 8.87133 78.5665 9.422 78.5665 10.122C78.5665 10.822 78.7532 11.3727 79.1265 11.774C79.4999 12.166 79.9945 12.362 80.6105 12.362C81.2079 12.362 81.6979 12.1613 82.0805 11.76C82.4725 11.3493 82.6685 10.8033 82.6685 10.122C82.6685 9.43133 82.4725 8.88533 82.0805 8.484C81.6979 8.07333 81.2079 7.868 80.6105 7.868ZM96.5375 6.132C97.4802 6.132 98.2222 6.426 98.7635 7.014C99.3142 7.59267 99.5895 8.41867 99.5895 9.492V14H97.6295V9.716C97.6295 9.11867 97.4755 8.66133 97.1675 8.344C96.8688 8.01733 96.4535 7.854 95.9215 7.854C95.3708 7.854 94.9322 8.02667 94.6055 8.372C94.2788 8.71733 94.1155 9.22133 94.1155 9.884V14H92.1555V9.716C92.1555 9.11867 92.0015 8.66133 91.6935 8.344C91.3948 8.01733 90.9795 7.854 90.4475 7.854C89.8968 7.854 89.4582 8.02667 89.1315 8.372C88.8048 8.71733 88.6415 9.22133 88.6415 9.884V14H86.6675V6.244H88.6415V7.714C88.8468 7.21 89.1688 6.82267 89.6075 6.552C90.0555 6.272 90.5735 6.132 91.1615 6.132C91.7868 6.132 92.3282 6.28133 92.7855 6.58C93.2522 6.87867 93.6022 7.308 93.8355 7.868C94.0782 7.336 94.4375 6.916 94.9135 6.608C95.3988 6.29067 95.9402 6.132 96.5375 6.132ZM106.208 6.146C106.861 6.146 107.449 6.30467 107.972 6.622C108.494 6.93933 108.9 7.40133 109.19 8.008C109.488 8.60533 109.638 9.31 109.638 10.122C109.638 10.934 109.488 11.6433 109.19 12.25C108.9 12.8473 108.494 13.3047 107.972 13.622C107.449 13.9393 106.861 14.098 106.208 14.098C105.554 14.098 104.994 13.944 104.528 13.636C104.07 13.3187 103.744 12.8987 103.548 12.376V17.696H101.574V6.244H103.548V7.854C103.744 7.33133 104.07 6.916 104.528 6.608C104.994 6.3 105.554 6.146 106.208 6.146ZM105.592 7.868C104.994 7.868 104.5 8.07333 104.108 8.484C103.725 8.88533 103.534 9.43133 103.534 10.122C103.534 10.8033 103.725 11.3493 104.108 11.76C104.5 12.1613 104.994 12.362 105.592 12.362C106.208 12.362 106.702 12.166 107.076 11.774C107.449 11.3727 107.636 10.822 107.636 10.122C107.636 9.422 107.449 8.87133 107.076 8.47C106.702 8.06867 106.208 7.868 105.592 7.868ZM113.259 3.64V14H111.285V3.64H113.259ZM122.588 9.828C122.588 10.024 122.565 10.248 122.518 10.5H116.834C116.862 11.1907 117.049 11.6993 117.394 12.026C117.74 12.3527 118.169 12.516 118.682 12.516C119.14 12.516 119.518 12.404 119.816 12.18C120.124 11.956 120.32 11.6527 120.404 11.27H122.49C122.388 11.8113 122.168 12.2967 121.832 12.726C121.496 13.1553 121.062 13.4913 120.53 13.734C120.008 13.9767 119.424 14.098 118.78 14.098C118.024 14.098 117.352 13.9393 116.764 13.622C116.176 13.2953 115.719 12.8333 115.392 12.236C115.066 11.6387 114.902 10.934 114.902 10.122C114.902 9.31 115.066 8.60533 115.392 8.008C115.719 7.40133 116.176 6.93933 116.764 6.622C117.352 6.30467 118.024 6.146 118.78 6.146C119.546 6.146 120.213 6.30467 120.782 6.622C121.361 6.93933 121.804 7.378 122.112 7.938C122.43 8.48867 122.588 9.11867 122.588 9.828ZM120.6 9.632C120.628 8.99733 120.46 8.51667 120.096 8.19C119.742 7.86333 119.303 7.7 118.78 7.7C118.248 7.7 117.8 7.86333 117.436 8.19C117.072 8.51667 116.872 8.99733 116.834 9.632H120.6ZM128.902 0.742L125.108 16.534H123.204L126.998 0.742H128.902ZM133.335 6.146C134.334 6.146 135.164 6.41667 135.827 6.958C136.499 7.49933 136.919 8.23667 137.087 9.17H135.001C134.917 8.75933 134.726 8.43733 134.427 8.204C134.128 7.96133 133.75 7.84 133.293 7.84C132.77 7.84 132.332 8.036 131.977 8.428C131.632 8.81067 131.459 9.37533 131.459 10.122C131.459 10.8687 131.632 11.438 131.977 11.83C132.332 12.2127 132.77 12.404 133.293 12.404C133.75 12.404 134.128 12.2873 134.427 12.054C134.726 11.8113 134.917 11.4847 135.001 11.074H137.087C136.919 12.0073 136.499 12.7447 135.827 13.286C135.164 13.8273 134.334 14.098 133.335 14.098C132.579 14.098 131.907 13.9393 131.319 13.622C130.731 13.2953 130.274 12.8333 129.947 12.236C129.62 11.6387 129.457 10.934 129.457 10.122C129.457 9.31 129.62 8.60533 129.947 8.008C130.274 7.40133 130.731 6.93933 131.319 6.622C131.907 6.30467 132.579 6.146 133.335 6.146ZM142.324 6.146C143.08 6.146 143.756 6.30467 144.354 6.622C144.96 6.93933 145.436 7.40133 145.782 8.008C146.127 8.60533 146.3 9.31 146.3 10.122C146.3 10.934 146.127 11.6387 145.782 12.236C145.436 12.8333 144.96 13.2953 144.354 13.622C143.756 13.9393 143.08 14.098 142.324 14.098C141.568 14.098 140.886 13.9393 140.28 13.622C139.682 13.2953 139.211 12.8333 138.866 12.236C138.52 11.6387 138.348 10.934 138.348 10.122C138.348 9.31 138.52 8.60533 138.866 8.008C139.211 7.40133 139.682 6.93933 140.28 6.622C140.886 6.30467 141.568 6.146 142.324 6.146ZM142.324 7.854C141.773 7.854 141.306 8.05 140.924 8.442C140.541 8.82467 140.35 9.38467 140.35 10.122C140.35 10.8593 140.541 11.424 140.924 11.816C141.306 12.1987 141.773 12.39 142.324 12.39C142.874 12.39 143.341 12.1987 143.724 11.816C144.106 11.424 144.298 10.8593 144.298 10.122C144.298 9.38467 144.106 8.82467 143.724 8.442C143.341 8.05 142.874 7.854 142.324 7.854ZM157.815 6.132C158.757 6.132 159.499 6.426 160.041 7.014C160.591 7.59267 160.867 8.41867 160.867 9.492V14H158.907V9.716C158.907 9.11867 158.753 8.66133 158.445 8.344C158.146 8.01733 157.731 7.854 157.199 7.854C156.648 7.854 156.209 8.02667 155.883 8.372C155.556 8.71733 155.393 9.22133 155.393 9.884V14H153.433V9.716C153.433 9.11867 153.279 8.66133 152.971 8.344C152.672 8.01733 152.257 7.854 151.725 7.854C151.174 7.854 150.735 8.02667 150.409 8.372C150.082 8.71733 149.919 9.22133 149.919 9.884V14H147.945V6.244H149.919V7.714C150.124 7.21 150.446 6.82267 150.885 6.552C151.333 6.272 151.851 6.132 152.439 6.132C153.064 6.132 153.605 6.28133 154.063 6.58C154.529 6.87867 154.879 7.308 155.113 7.868C155.355 7.336 155.715 6.916 156.191 6.608C156.676 6.29067 157.217 6.132 157.815 6.132Z" fill="#FF7979"/>
</svg>
